<?xml version="1.0" standalone="no"?>
<!DOCTYPE svg PUBLIC "-//W3C//DTD SVG 20010904//EN"
 "http://www.w3.org/TR/2001/REC-SVG-20010904/DTD/svg10.dtd">
<svg version="1.0" xmlns="http://www.w3.org/2000/svg"
 width="50.000000pt" height="50.000000pt" viewBox="0 0 50.000000 50.000000"
 preserveAspectRatio="xMidYMid meet">

<g transform="translate(0.000000,50.000000) scale(0.100000,-0.100000)"
fill="#000000" stroke="none">
<path d="M216 439 c3 -6 13 -8 20 -5 19 7 134 -32 154 -51 13 -14 12 -15 -13
-10 -21 3 -27 1 -23 -10 5 -11 2 -11 -16 -2 -13 7 -40 11 -61 11 -21 -1 -47 3
-58 8 -13 7 -19 7 -19 0 0 -5 -7 -10 -15 -10 -8 0 -15 5 -15 10 0 7 -7 7 -21
0 -11 -6 -27 -10 -36 -8 -18 3 6 18 62 38 26 10 28 13 12 21 -22 13 -67 1 -46
-12 8 -5 9 -9 4 -9 -6 0 -16 5 -23 12 -9 9 -12 9 -12 -1 0 -8 -6 -11 -15 -7
-9 3 -15 0 -15 -10 0 -8 -4 -13 -9 -10 -10 7 -23 -33 -15 -46 4 -5 12 -7 20
-4 8 3 14 1 14 -4 0 -6 8 -10 18 -10 11 0 26 -8 35 -18 14 -15 15 -21 4 -35
-11 -15 -15 -15 -41 -2 -15 8 -32 13 -36 10 -5 -3 -11 1 -13 7 -3 8 -6 6 -6
-4 -1 -10 4 -18 9 -18 6 0 10 -6 10 -12 -1 -8 -8 -5 -18 7 -27 31 -42 29 -39
-5 2 -17 6 -33 10 -36 3 -3 3 -12 0 -20 -3 -8 0 -14 6 -14 6 0 10 -6 8 -12 -1
-7 5 -12 14 -10 8 1 26 -9 39 -23 l23 -25 -24 -1 c-19 0 -14 -5 25 -24 38 -19
53 -22 69 -14 16 9 19 9 14 -3 -4 -13 4 -15 45 -13 49 2 79 22 56 36 -7 4 -7
9 1 13 10 6 15 -6 12 -26 -1 -7 70 0 77 7 2 2 4 10 6 18 3 21 27 48 37 41 5
-3 6 1 3 9 -3 9 3 17 19 21 20 5 23 11 22 41 0 19 3 35 7 35 4 0 8 7 8 15 0
18 -16 20 -27 3 -4 -7 -19 -22 -33 -33 l-25 -20 24 27 c12 14 24 38 25 52 1
28 11 34 19 14 3 -8 6 -8 6 -2 2 20 -38 57 -54 50 -8 -3 -15 -1 -15 4 0 6 5
10 11 10 8 0 8 5 -1 15 -7 8 -27 15 -44 15 -24 0 -27 3 -16 10 12 8 12 10 -5
11 -11 0 -29 2 -40 4 -61 12 -106 14 -99 4z m224 -95 c0 -7 -6 -11 -14 -8 -8
3 -17 1 -21 -5 -3 -6 -1 -11 5 -11 6 0 8 -5 5 -10 -4 -7 -14 -6 -28 2 -19 9
-20 9 -10 -3 9 -11 6 -14 -19 -16 -17 -1 -28 2 -26 8 2 6 7 10 11 9 4 0 17 10
28 22 23 26 69 34 69 12z m-260 -84 c-8 -5 -17 -7 -19 -4 -3 3 1 9 9 14 8 5
17 7 19 4 3 -3 -1 -9 -9 -14z m167 -6 c-7 -7 -37 7 -37 17 0 6 9 5 21 -1 11
-7 19 -14 16 -16z m-86 -14 c12 7 20 6 25 -2 4 -7 3 -8 -4 -4 -7 4 -12 1 -12
-8 0 -10 -6 -13 -17 -9 -12 5 -14 3 -8 -7 5 -9 4 -11 -3 -6 -7 4 -12 14 -12
22 0 9 -5 12 -12 8 -7 -5 -8 -3 -3 5 5 9 10 10 18 2 6 -6 16 -7 28 -1z m195
-16 c-11 -8 -29 -14 -40 -14 -16 0 -12 5 14 18 39 20 55 18 26 -4z m-56 12 c0
-2 -8 -10 -17 -17 -16 -13 -17 -12 -4 4 13 16 21 21 21 13z m-213 -42 c21 -7
30 -13 20 -14 -10 0 -27 5 -39 11 -11 6 -22 8 -25 6 -3 -3 8 -12 24 -21 27
-15 27 -15 5 -16 -13 0 -36 9 -52 20 -15 11 -30 17 -32 14 -3 -3 -8 3 -12 12
-5 12 -2 15 11 9 10 -4 27 -10 38 -13 18 -5 19 -4 5 14 -14 18 -14 18 2 5 10
-7 35 -19 55 -27z m143 -4 c-8 -5 -24 -9 -35 -9 -16 1 -16 2 5 9 35 11 48 11
30 0z m-26 -48 c3 -5 -1 -9 -9 -9 -8 0 -15 4 -15 9 0 10 17 10 24 0z"/>
<path d="M240 390 c-12 -8 -10 -10 8 -10 13 0 20 4 17 10 -7 12 -6 12 -25 0z"/>
<path d="M30 348 c0 -10 -4 -18 -10 -18 -5 0 -7 -6 -4 -14 3 -8 13 -12 25 -9
23 6 24 13 4 39 -13 17 -14 17 -15 2z"/>
<path d="M77 309 c7 -7 15 -10 18 -7 3 3 -2 9 -12 12 -14 6 -15 5 -6 -5z"/>
</g>
</svg>
