<?xml version="1.0" standalone="no"?>
<!DOCTYPE svg PUBLIC "-//W3C//DTD SVG 20010904//EN"
 "http://www.w3.org/TR/2001/REC-SVG-20010904/DTD/svg10.dtd">
<svg version="1.0" xmlns="http://www.w3.org/2000/svg"
 width="50.000000pt" height="50.000000pt" viewBox="0 0 50.000000 50.000000"
 preserveAspectRatio="xMidYMid meet">

<g transform="translate(0.000000,50.000000) scale(0.100000,-0.100000)"
fill="#000000" stroke="none">
<path d="M188 457 c-48 -22 -61 -37 -33 -37 8 0 15 -4 15 -10 0 -5 -9 -10 -20
-10 -11 0 -20 5 -20 10 0 21 -30 9 -36 -15 -3 -14 -11 -25 -16 -25 -16 0 -42
-31 -45 -54 -2 -11 -8 -31 -15 -43 -8 -17 -8 -29 0 -48 7 -14 12 -34 12 -43 0
-9 12 -28 26 -41 17 -17 24 -32 21 -48 -2 -13 0 -23 4 -23 5 0 9 4 9 9 0 15
44 -1 62 -23 10 -12 17 -17 18 -13 0 5 18 -2 40 -14 l40 -23 40 23 c22 12 40
19 40 14 1 -4 9 2 18 13 10 12 28 24 39 28 28 9 38 37 18 48 -13 8 -13 11 1
33 25 38 25 77 1 104 -18 20 -19 23 -4 18 21 -8 23 6 3 22 -10 8 -16 9 -21 1
-3 -5 -16 -10 -28 -10 -20 0 -20 0 -1 -14 17 -13 15 -14 -23 -5 -25 5 -51 5
-66 0 -13 -5 -30 -5 -38 -1 -8 5 -16 5 -20 -1 -3 -5 -23 -13 -44 -16 -28 -5
-36 -3 -31 6 4 6 2 18 -4 26 -10 12 -9 16 4 21 10 4 15 13 12 20 -5 14 35 47
78 64 26 10 36 43 16 55 -6 4 -8 11 -5 16 8 12 8 12 -47 -14z m22 -16 c0 -12
-20 -25 -27 -18 -7 7 6 27 18 27 5 0 9 -4 9 -9z m-135 -131 c3 -5 1 -10 -4
-10 -6 0 -11 5 -11 10 0 6 2 10 4 10 3 0 8 -4 11 -10z m245 -40 c12 -8 11 -10
-7 -10 -13 0 -23 5 -23 10 0 13 11 13 30 0z m45 -18 c-3 -3 -11 0 -18 7 -9 10
-8 11 6 5 10 -3 15 -9 12 -12z m-195 -17 c0 -8 -2 -15 -4 -15 -2 0 -6 7 -10
15 -3 8 -1 15 4 15 6 0 10 -7 10 -15z m107 9 c-3 -3 -12 -4 -19 -1 -8 3 -5 6
6 6 11 1 17 -2 13 -5z m133 -5 c12 -8 10 -9 -7 -4 -18 5 -23 2 -23 -11 0 -10
-3 -15 -6 -11 -8 8 3 37 13 37 4 0 15 -5 23 -11z m0 -40 c0 -6 -4 -7 -10 -4
-5 3 -10 11 -10 16 0 6 5 7 10 4 6 -3 10 -11 10 -16z m-210 -19 c0 -5 -2 -10
-4 -10 -3 0 -8 5 -11 10 -3 6 -1 10 4 10 6 0 11 -4 11 -10z m130 -30 c0 -5 -5
-10 -11 -10 -5 0 -7 5 -4 10 3 6 8 10 11 10 2 0 4 -4 4 -10z m-125 -71 c-7
-10 -35 -1 -35 11 0 5 9 6 20 3 11 -3 17 -9 15 -14z m120 1 c-10 -11 -20 -18
-23 -15 -7 6 18 35 31 35 5 0 2 -9 -8 -20z"/>
<path d="M283 453 c4 -3 1 -13 -6 -21 -10 -13 -9 -14 3 -10 19 6 26 38 9 38
-7 0 -9 -3 -6 -7z"/>
<path d="M320 446 c0 -3 9 -10 20 -16 11 -6 20 -8 20 -6 0 3 -9 10 -20 16 -11
6 -20 8 -20 6z"/>
<path d="M340 379 c-19 -10 -40 -19 -47 -19 -18 0 -16 -15 3 -34 9 -10 25 -14
40 -11 13 3 35 7 49 10 14 3 23 10 20 15 -3 6 2 10 12 11 15 0 14 2 -4 11 -13
6 -23 17 -23 25 0 17 -8 16 -50 -8z m0 -43 c0 -2 -7 -6 -15 -10 -8 -3 -15 -1
-15 4 0 6 7 10 15 10 8 0 15 -2 15 -4z"/>
<path d="M191 330 c-9 -5 -8 -9 5 -14 9 -4 21 -3 26 2 12 12 -15 23 -31 12z"/>
<path d="M460 235 c0 -10 -5 -13 -12 -9 -7 4 -8 3 -4 -4 4 -6 0 -27 -8 -46
-12 -28 -12 -34 -1 -30 14 6 21 19 35 66 5 16 5 30 -1 33 -5 4 -9 -1 -9 -10z"/>
</g>
</svg>
